<svg width="59" height="59" viewBox="0 0 59 59" fill="none" xmlns="http://www.w3.org/2000/svg">
<g clip-path="url(#clip0_35101_5405)">
<path d="M29.4998 12.5921C28.3464 12.5921 27.4114 11.6572 27.4114 10.5037V2.08839C27.4114 0.934896 28.3464 0 29.4998 0C30.6532 0 31.5882 0.934896 31.5882 2.08839V10.5038C31.5882 11.6572 30.6532 12.5921 29.4998 12.5921Z" fill="#FF4545"/>
<path opacity="0.52" d="M29.4998 59C28.3464 59 27.4114 58.0651 27.4114 56.9116V48.4961C27.4114 47.3426 28.3464 46.4077 29.4998 46.4077C30.6532 46.4077 31.5882 47.3426 31.5882 48.4961V56.9116C31.5882 58.0651 30.6532 59 29.4998 59Z" fill="#FF4545"/>
<path opacity="0.58" d="M39.8596 56.9674C39.0361 56.9674 38.2558 56.4771 37.9254 55.6679L34.7453 47.8766C34.3093 46.8087 34.8218 45.5897 35.8896 45.154C36.9566 44.7176 38.1763 45.2302 38.6122 46.298L41.7923 54.0893C42.2283 55.1572 41.7158 56.3763 40.648 56.812C40.3897 56.9177 40.1225 56.9674 39.8596 56.9674Z" fill="#FF4545"/>
<path opacity="0.94" d="M36.678 14.0012C36.4152 14.0012 36.1479 13.9515 35.8896 13.8458C34.8217 13.4102 34.3094 12.191 34.7453 11.1231L37.9254 3.3318C38.3612 2.26392 39.5802 1.75009 40.6481 2.18763C41.7159 2.62322 42.2283 3.8424 41.7923 4.91028L38.6122 12.7016C38.2818 13.511 37.5015 14.0012 36.678 14.0012Z" fill="#FF4545"/>
<path opacity="0.46" d="M19.1402 56.9675C18.8773 56.9675 18.6101 56.9177 18.3517 56.812C17.2839 56.3765 16.7715 55.1573 17.2075 54.0894L20.3876 46.2981C20.8235 45.2302 22.0423 44.7175 23.1102 45.154C24.1781 45.5896 24.6904 46.8088 24.2545 47.8767L21.0744 55.668C20.744 56.4773 19.9636 56.9675 19.1402 56.9675Z" fill="#FF4545"/>
<path opacity="0.36" d="M4.12164 41.9478C3.29818 41.9478 2.51781 41.4579 2.18743 40.6483C1.7515 39.5804 2.26383 38.3614 3.3316 37.9257L11.1228 34.7454C12.1906 34.3082 13.4096 34.8212 13.8456 35.8895C14.2815 36.9573 13.7692 38.1764 12.7014 38.6121L4.91019 41.7923C4.65184 41.898 4.38449 41.9478 4.12164 41.9478Z" fill="#FF4545"/>
<path opacity="0.82" d="M47.0882 24.41C46.2647 24.41 45.4844 23.9202 45.154 23.1105C44.7181 22.0427 45.2304 20.8236 46.2981 20.3879L54.0894 17.2077C55.1568 16.7708 56.3763 17.2835 56.8121 18.3518C57.2481 19.4197 56.7357 20.6388 55.668 21.0745L47.8767 24.2547C47.6184 24.3603 47.351 24.41 47.0882 24.41Z" fill="#FF4545"/>
<path opacity="0.24" d="M11.9116 24.4102C11.6488 24.4102 11.3816 24.3604 11.1231 24.2548L3.33186 21.0745C2.26398 20.6389 1.75176 19.4198 2.18769 18.3519C2.62351 17.284 3.84223 16.7718 4.91045 17.2077L12.7017 20.388C13.7696 20.8235 14.2818 22.0427 13.8458 23.1106C13.5155 23.9199 12.735 24.4102 11.9116 24.4102Z" fill="#FF4545"/>
<path opacity="0.7" d="M54.8779 41.9477C54.6151 41.9477 54.3479 41.898 54.0894 41.7923L46.2982 38.6121C45.2303 38.1765 44.7181 36.9573 45.154 35.8894C45.5899 34.8223 46.8087 34.3097 47.8768 34.7454L55.668 37.9256C56.7359 38.3612 57.2481 39.5804 56.8121 40.6482C56.4818 41.4574 55.7013 41.9477 54.8779 41.9477Z" fill="#FF4545"/>
<path opacity="0.88" d="M42.9321 18.1561C42.3976 18.1561 41.8633 17.9521 41.4554 17.5443C40.6399 16.7289 40.6398 15.4066 41.4553 14.5912L47.4058 8.64062C48.2213 7.82487 49.5436 7.82487 50.3591 8.64062C51.1747 9.45602 51.1748 10.7783 50.3593 11.5937L44.4088 17.5443C44.0011 17.9521 43.4665 18.1561 42.9321 18.1561Z" fill="#FF4545"/>
<path opacity="0.4" d="M10.1171 50.9713C9.58266 50.9713 9.04832 50.7673 8.6405 50.3595C7.82499 49.5441 7.82487 48.2218 8.64039 47.4064L14.5909 41.4558C15.4064 40.6401 16.7287 40.6401 17.5442 41.4558C18.3597 42.2712 18.3598 43.5935 17.5443 44.4089L11.5938 50.3595C11.186 50.7673 10.6515 50.9713 10.1171 50.9713Z" fill="#FF4545"/>
<path opacity="0.18" d="M16.0674 18.1561C15.5328 18.1561 14.9986 17.9521 14.5907 17.5443L8.64019 11.5937C7.82467 10.7783 7.82467 9.456 8.6403 8.6406C9.4557 7.8252 10.778 7.8252 11.5936 8.6406L17.5441 14.5912C18.3596 15.4066 18.3596 16.7289 17.544 17.5443C17.1363 17.9521 16.6017 18.1561 16.0674 18.1561Z" fill="#FF4545"/>
<path opacity="0.64" d="M48.8825 50.9713C48.348 50.9713 47.8137 50.7673 47.4058 50.3595L41.4553 44.4089C40.6398 43.5935 40.6399 42.2712 41.4554 41.4558C42.271 40.6404 43.5933 40.6404 44.4088 41.4558L50.3593 47.4064C51.1748 48.2218 51.1748 49.5441 50.3591 50.3595C49.9516 50.7673 49.417 50.9713 48.8825 50.9713Z" fill="#FF4545"/>
<path opacity="0.3" d="M10.5035 31.5884H2.08839C0.935012 31.5884 0 30.6535 0 29.5C0 28.3465 0.935012 27.4116 2.08839 27.4116H10.5035C11.6569 27.4116 12.5919 28.3465 12.5919 29.5C12.5919 30.6535 11.6569 31.5884 10.5035 31.5884Z" fill="#FF4545"/>
<path opacity="0.76" d="M56.9114 31.5884H48.4961C47.3427 31.5884 46.4077 30.6535 46.4077 29.5C46.4077 28.3465 47.3427 27.4116 48.4961 27.4116H56.9114C58.0648 27.4116 58.9998 28.3465 58.9998 29.5C58.9998 30.6535 58.0649 31.5884 56.9114 31.5884Z" fill="#FF4545"/>
</g>
<defs>
<clipPath id="clip0_35101_5405">
<rect width="59" height="59" fill="white"/>
</clipPath>
</defs>
</svg>
