<svg width="32" height="32" viewBox="0 0 32 32" fill="none" xmlns="http://www.w3.org/2000/svg">
<path fill-rule="evenodd" clip-rule="evenodd" d="M4.00008 16C4.00008 9.39085 9.39097 4 15.9996 4C22.6085 4 28 9.39086 28 16C28 22.6091 22.6085 27.9999 15.9996 27.9999C9.39097 27.9999 4.00008 22.6091 4.00008 16Z" fill="#F9853C"/>
<path fill-rule="evenodd" clip-rule="evenodd" d="M12.1599 4.62329C7.41622 6.2266 3.99999 10.7136 3.99999 15.9999C3.99999 22.6279 9.37189 27.9999 15.9995 27.9999C21.4283 27.9999 26.0154 24.3932 27.4956 19.4447C25.5348 21.9142 22.5038 23.4987 19.1019 23.4987C13.183 23.4987 8.38673 18.7024 8.38673 12.7881C8.3868 9.51453 9.85213 6.5883 12.1599 4.62329Z" fill="#E95F00"/>
<path fill-rule="evenodd" clip-rule="evenodd" d="M10.1375 5.52258C9.93293 5.64149 9.72874 5.76054 9.52407 5.88884C9.62882 6.03174 9.71451 6.1839 9.78084 6.35051C9.971 6.82158 10.0282 7.40201 9.93797 8.07764C8.6295 8.52022 7.4304 9.11497 6.3693 9.83325C5.9697 10.1045 5.58932 10.3901 5.23213 10.6945C4.97052 11.2227 4.74684 11.7698 4.56608 12.336C5.1942 11.6319 5.93156 10.9849 6.76891 10.4234C7.66832 9.81438 8.67725 9.29568 9.77144 8.89111C9.60007 9.51918 9.31946 10.1996 8.92925 10.9324L8.91018 10.9657C7.73493 13.1545 6.63112 15.2101 5.83647 17.6558C5.37047 19.0926 5.28934 20.4583 5.47018 21.7572C5.7984 22.3614 6.18377 22.9372 6.61212 23.4749C6.03147 21.7238 5.86986 19.8636 6.51221 17.8746C7.28758 15.4907 8.37735 13.4637 9.53837 11.3035L9.55744 11.2704C10.0712 10.3091 10.4043 9.41921 10.566 8.62005C11.5129 8.32969 12.5122 8.11559 13.5543 7.99668C13.1023 10.3044 12.8404 13.0499 12.8404 15.9998C12.8404 20.0681 13.3402 23.7556 14.1443 26.4346C14.306 26.9722 14.4865 27.4717 14.6721 27.9285C14.9339 27.957 15.2003 27.9761 15.4667 27.9855C15.2382 27.4765 15.0241 26.8864 14.8291 26.2299C14.0395 23.6177 13.5543 20.0013 13.5543 15.9998C13.5543 13.0069 13.8253 10.233 14.2918 7.93004C14.7054 7.89686 15.1241 7.88248 15.543 7.88248C15.8664 7.88248 16.1852 7.89188 16.4991 7.91096C16.4849 8.20588 16.4991 8.51531 16.5469 8.83885C16.6707 9.67618 17.0131 10.6041 17.6271 11.589C18.2026 12.5169 18.8738 13.4543 19.554 14.3963C20.4246 15.6097 21.3096 16.8421 22.009 18.0886C23.2984 20.3916 23.9743 22.5424 24.2551 24.6835L24.2595 24.7025C24.4738 24.4981 24.683 24.2839 24.883 24.0649C24.5546 22.0093 23.8599 19.935 22.6322 17.7414C21.9187 16.471 21.0192 15.2195 20.1295 13.9824C19.4586 13.05 18.7926 12.122 18.2313 11.2179C17.6745 10.3186 17.3606 9.4813 17.251 8.73405C17.2129 8.46775 17.1986 8.20587 17.2129 7.96336C19.92 8.22496 22.3755 9.10529 24.3215 10.4234C25.8823 11.4795 27.1101 12.807 27.881 14.3107C27.781 13.6208 27.6285 12.9452 27.4145 12.2932C26.677 11.3702 25.768 10.5423 24.7166 9.83318C22.6895 8.45814 20.1341 7.53502 17.3225 7.25904C17.3556 7.13544 17.3985 7.01653 17.446 6.90218C17.6649 6.39779 18.017 5.99351 18.4738 5.71262C18.8213 5.49389 19.2304 5.3512 19.6822 5.28442C20.1914 5.20845 20.7102 5.18445 21.2288 5.19413C20.7242 4.95141 20.201 4.74208 19.6585 4.566C19.63 4.5707 19.6061 4.57554 19.5825 4.57554C19.0306 4.65635 18.531 4.83727 18.0978 5.10841C17.5175 5.46527 17.0654 5.9792 16.7942 6.62165C16.7134 6.80706 16.6514 6.99745 16.6038 7.20208C16.2518 7.1783 15.8996 7.16876 15.5429 7.16876C15.1764 7.16876 14.8101 7.183 14.4485 7.20208C14.5672 6.69769 14.6911 6.21715 14.8291 5.76517C15.0241 5.11325 15.2381 4.52328 15.4667 4.00928C15.2002 4.02366 14.9338 4.0426 14.672 4.07129C14.4864 4.52798 14.3059 5.02282 14.1442 5.56531C13.9869 6.09348 13.8397 6.65967 13.7063 7.26388C12.6548 7.36862 11.6413 7.56848 10.6755 7.84431C10.7276 7.1783 10.6422 6.58818 10.4421 6.08386C10.3564 5.88414 10.2565 5.69375 10.1375 5.52258Z" fill="#8F3B00"/>
<path fill-rule="evenodd" clip-rule="evenodd" d="M9.95687 5.62744L9.94719 5.63684L9.938 5.64168L9.92356 5.64638L9.91388 5.65108L9.90448 5.65592L9.89509 5.66546L9.80457 5.71787C9.75247 5.74635 9.7003 5.77967 9.64771 5.81285L9.64316 5.81769C9.60501 5.84147 9.56715 5.86526 9.5288 5.89395C9.62893 6.03194 9.71461 6.18402 9.78094 6.35063C9.88086 6.59785 9.94263 6.8788 9.96654 7.18326C10.1425 6.89774 10.3328 6.62191 10.5327 6.35063C10.5042 6.26007 10.4757 6.16978 10.4422 6.08406C10.3565 5.88427 10.2566 5.69387 10.1376 5.5227C10.0759 5.56066 10.0141 5.59412 9.95687 5.62744ZM5.47021 21.7574C5.49889 21.8147 5.53198 21.8715 5.5655 21.9289L5.61304 22.0145C5.6415 22.0667 5.67503 22.1193 5.70812 22.1762C5.7272 22.2096 5.74626 22.238 5.76533 22.2714C5.7938 22.3191 5.8269 22.3666 5.85557 22.414C5.8792 22.4521 5.90312 22.4854 5.92219 22.5189C5.95066 22.5664 5.98397 22.6093 6.01272 22.6568C6.03635 22.69 6.06025 22.728 6.08872 22.7662C6.11235 22.8042 6.14089 22.8423 6.16957 22.8853C6.19803 22.928 6.22678 22.966 6.26009 23.009C6.28372 23.047 6.31247 23.0802 6.3361 23.1184C6.3694 23.1613 6.40292 23.204 6.43602 23.247C6.45993 23.28 6.48356 23.3135 6.50747 23.3419C6.54078 23.3849 6.57408 23.4277 6.60738 23.4752L6.61222 23.4752C6.03157 21.7242 5.86995 19.8639 6.51231 17.875C7.0309 16.2857 7.68756 14.8582 8.40592 13.4402C8.39652 13.2263 8.38685 13.0073 8.38685 12.7884C8.38685 12.4791 8.40129 12.17 8.42499 11.8701C7.43506 13.7305 6.5217 15.5482 5.83657 17.6561C5.37057 19.0929 5.28944 20.4586 5.47021 21.7574ZM14.6721 27.9287L14.6769 27.9287C14.7387 27.9334 14.8053 27.9383 14.8719 27.9475L14.8816 27.9475L14.9576 27.9524L14.967 27.9571L14.9815 27.9571C15.0481 27.9618 15.1147 27.9668 15.1813 27.9715L15.1907 27.9715L15.2049 27.9715L15.2194 27.9715L15.2718 27.9762C15.3335 27.9811 15.4001 27.9856 15.4668 27.9856C15.2382 27.4767 15.0242 26.8866 14.8292 26.2301C14.4773 25.0643 14.187 23.7034 13.973 22.1951C13.7017 22.0474 13.4399 21.8905 13.1877 21.7192C13.4162 23.4939 13.7396 25.0927 14.1443 26.4346C14.3059 26.9724 14.4865 27.472 14.6721 27.9287ZM24.2595 24.7027C24.4738 24.4982 24.683 24.2841 24.8831 24.0651C24.7784 23.4038 24.6355 22.7424 24.4453 22.0716C24.2359 22.1953 24.0218 22.3094 23.803 22.4189C24.0076 23.1802 24.155 23.932 24.2552 24.6837L24.2595 24.7027ZM9.0008 9.20075C9.11496 8.88661 9.23872 8.57731 9.38134 8.27762C8.28693 8.69629 7.2782 9.21976 6.3694 9.83344C5.9698 10.1047 5.58941 10.3903 5.23223 10.6947C4.97062 11.2229 4.74694 11.77 4.56618 12.3362C5.1943 11.6321 5.93166 10.985 6.76901 10.4236C7.45442 9.96203 8.20153 9.54807 9.0008 9.20075Z" fill="#6E240F"/>
</svg>
