<svg width="44" height="44" viewBox="0 0 44 44" fill="none" xmlns="http://www.w3.org/2000/svg">
<path d="M27 18.002C29.175 18.0141 30.3529 18.1105 31.1213 18.8789C32 19.7576 32 21.1718 32 24.0002V25.0002C32 27.8286 32 29.2429 31.1213 30.1215C30.2426 31.0002 28.8284 31.0002 26 31.0002H18C15.1716 31.0002 13.7574 31.0002 12.8787 30.1215C12 29.2429 12 27.8286 12 25.0002L12 24.0002C12 21.1718 12 19.7576 12.8787 18.8789C13.6471 18.1105 14.825 18.0141 17 18.002" stroke="#FF4545" stroke-width="1.6" stroke-linecap="round"/>
<path d="M22 13V23.9992M22 23.9992L19 20.4992M22 23.9992L25 20.4992" stroke="#FF4545" stroke-width="1.6" stroke-linecap="round" stroke-linejoin="round"/>
</svg>
