<svg width="32" height="32" viewBox="0 0 32 32" fill="none" xmlns="http://www.w3.org/2000/svg">
<path fill-rule="evenodd" clip-rule="evenodd" d="M7.22621 4.5644C9.32924 2.97416 17.7268 4.63695 22.4824 10.9256C27.2358 17.2114 26.8687 25.502 24.4461 27.3342C22.0207 29.1686 13.9435 27.2639 9.1896 20.9781C4.4338 14.6895 5.12085 6.15659 7.22621 4.5644Z" fill="#A03D20"/>
<path fill-rule="evenodd" clip-rule="evenodd" d="M25.5315 17.1404C26.807 21.7562 26.1136 26.0733 24.4461 27.3343C22.0207 29.1687 13.9435 27.264 9.18961 20.9782C7.05482 18.1555 6.01594 14.8794 5.71367 11.9822C6.25134 14.1404 7.20918 16.3699 8.72146 18.3695C13.4605 24.6355 21.5111 26.5343 23.9282 24.7062C25.2698 23.6915 25.978 20.6835 25.5315 17.1404Z" fill="#7D240C"/>
<path fill-rule="evenodd" clip-rule="evenodd" d="M7.4247 4.43624C7.52301 4.37959 7.63067 4.32911 7.74721 4.28491C11.0037 6.957 14.397 10.4928 17.5469 14.658C20.701 18.8289 23.1831 23.0622 24.8663 26.9279C24.791 27.0204 24.7088 27.1047 24.6252 27.1811C22.9532 23.3063 20.4619 19.0495 17.2886 14.8534C14.1154 10.6571 10.6975 7.10048 7.4247 4.43624Z" fill="#7D240C"/>
<path fill-rule="evenodd" clip-rule="evenodd" d="M25.8599 18.5435C26.0449 19.494 26.1501 20.421 26.1798 21.2947L18.1624 27.3581C17.327 27.0934 16.4637 26.7398 15.5993 26.3029L25.8599 18.5435Z" fill="white"/>
<path fill-rule="evenodd" clip-rule="evenodd" d="M25.8599 18.5435C26.0449 19.494 26.1501 20.421 26.1798 21.2947L25.3968 21.887C25.6004 20.9602 25.6952 19.8775 25.6576 18.6961L25.8599 18.5435ZM20.8154 25.3518L18.1623 27.3581C17.3269 27.0934 16.4636 26.7398 15.5992 26.3029L17.6738 24.7341C18.8006 25.0918 19.8681 25.2955 20.8154 25.3518Z" fill="#C4C4C4"/>
<path fill-rule="evenodd" clip-rule="evenodd" d="M13.3839 4.63672C14.2282 4.89468 15.1054 5.23786 15.9835 5.66402L5.89653 13.292C5.72562 12.3308 5.63733 11.3912 5.61866 10.5089L13.3839 4.63672Z" fill="white"/>
<path fill-rule="evenodd" clip-rule="evenodd" d="M12.2695 8.47262L12.0111 8.66771C11.4391 8.08048 10.8692 7.51359 10.2958 6.97148L10.5569 6.77417C11.1276 7.31834 11.7001 7.88333 12.2695 8.47262Z" fill="#C4C4C4"/>
<path d="M13.9839 9.71875C14.6312 10.4346 15.292 11.1976 15.9615 12.0069C16.6203 12.8023 17.2554 13.6068 17.8672 14.4156C18.4767 15.2218 19.0779 16.052 19.6636 16.9024C20.2601 17.7671 20.8144 18.6107 21.3291 19.4313L20.3739 20.0297C19.8454 19.1847 19.2996 18.3522 18.7386 17.5404C18.1902 16.745 17.5996 15.9293 16.9689 15.0951C16.3359 14.2582 15.7116 13.4674 15.0959 12.7233C14.4675 11.9624 13.8152 11.2106 13.1458 10.4718L13.9839 9.71875Z" fill="#C4C4C4"/>
<path fill-rule="evenodd" clip-rule="evenodd" d="M12.6221 11.1153C12.6806 10.877 12.7619 10.6698 12.8671 10.4884C12.9849 10.2935 13.1257 10.1297 13.2941 10.0022C13.4646 9.87773 13.6587 9.78408 13.883 9.72462C14.0785 9.67398 14.2959 9.6465 14.5319 9.64909C14.6445 9.65212 14.6588 9.69438 14.6862 9.73101L14.8025 9.89029C14.8151 9.90722 14.8851 9.96462 14.7824 9.98042C14.5771 10.0123 14.3862 10.064 14.2106 10.1347C14.009 10.2123 13.8236 10.3172 13.655 10.4445C13.4865 10.5719 13.3373 10.7247 13.2 10.8991C13.0796 11.0607 12.9697 11.2364 12.8719 11.4341C12.8321 11.5215 12.8051 11.4447 12.7843 11.4166L12.6652 11.2595C12.6141 11.1921 12.6111 11.1589 12.6221 11.1153Z" fill="white"/>
<path fill-rule="evenodd" clip-rule="evenodd" d="M19.6125 20.3588C19.8576 20.368 20.0819 20.3437 20.2821 20.2938C20.5041 20.2366 20.6978 20.1427 20.8662 20.0154C21.0346 19.8882 21.1756 19.7244 21.2939 19.5246C21.3958 19.3502 21.4813 19.1486 21.543 18.9207C21.573 18.8145 21.534 18.7864 21.5065 18.7499L21.3875 18.5925C21.372 18.578 21.3357 18.495 21.2923 18.5894C21.2059 18.7785 21.1045 18.948 20.9906 19.1003C20.8587 19.2704 20.7075 19.4205 20.539 19.5478C20.3708 19.6752 20.1828 19.7772 19.9776 19.862C19.7914 19.9365 19.5903 19.9914 19.3736 20.0318C19.2805 20.049 19.3452 20.0931 19.3663 20.1208L19.4854 20.2783C19.5365 20.3457 19.5672 20.3576 19.6125 20.3588Z" fill="white"/>
<path fill-rule="evenodd" clip-rule="evenodd" d="M13.7384 12.3819C13.8285 12.1856 13.9333 12.0094 14.0557 11.8504C14.1826 11.6794 14.3285 11.5339 14.4912 11.4107C14.6541 11.2876 14.8387 11.1876 15.0354 11.1095C15.2192 11.0368 15.4153 10.981 15.6242 10.9426C15.7161 10.9302 15.7497 10.9624 15.7838 11.0074C15.8326 11.072 15.8814 11.1365 15.9324 11.2039C15.9537 11.2319 15.9946 11.298 15.9061 11.3207C15.7217 11.3808 15.5431 11.4541 15.3731 11.5383C15.1869 11.6306 15.0165 11.7376 14.8507 11.8628C14.6878 11.9858 14.5356 12.1231 14.3934 12.2793C14.2653 12.4249 14.1406 12.5807 14.0239 12.7531C13.9787 12.8224 13.9338 12.7682 13.9082 12.7345C13.857 12.667 13.8084 12.6025 13.76 12.5332C13.7135 12.4713 13.7147 12.4263 13.7384 12.3819Z" fill="white"/>
<path fill-rule="evenodd" clip-rule="evenodd" d="M14.7912 13.5635C14.9132 13.4098 15.044 13.2619 15.1788 13.1248C15.319 12.9835 15.4679 12.8532 15.6277 12.7323C15.7849 12.6132 15.9506 12.5057 16.1276 12.4072C16.2964 12.3149 16.4691 12.2284 16.6504 12.153C16.7221 12.1254 16.7791 12.1483 16.8154 12.1963C16.8749 12.2748 16.9342 12.3534 16.9938 12.4322C17.0233 12.4714 17.0386 12.5438 16.9691 12.5743C16.7983 12.6637 16.6345 12.7566 16.4724 12.8571C16.3046 12.962 16.1409 13.0726 15.9837 13.1914C15.8238 13.3124 15.6728 13.4397 15.5263 13.5727C15.3826 13.7035 15.2452 13.8426 15.113 13.9828C15.0622 14.0385 15.0037 14.0079 14.9697 13.9628C14.9101 13.8842 14.8506 13.8055 14.7913 13.727C14.7465 13.6679 14.7527 13.6059 14.7912 13.5635Z" fill="white"/>
<path fill-rule="evenodd" clip-rule="evenodd" d="M15.7821 14.6638L17.6125 13.2795C17.6658 13.2393 17.7426 13.2474 17.7829 13.3005L17.9912 13.576C18.0317 13.6294 18.0205 13.7085 17.9674 13.7486L16.1367 15.1328C16.0836 15.1732 16.0047 15.1623 15.9643 15.1089L15.7559 14.8335C15.7158 14.7803 15.7286 14.7041 15.7821 14.6638Z" fill="white"/>
<path fill-rule="evenodd" clip-rule="evenodd" d="M16.7061 15.8857L18.5363 14.5015C18.5898 14.4612 18.6664 14.4692 18.7067 14.5226L18.9149 14.7978C18.9554 14.8512 18.9422 14.9272 18.8891 14.9677L17.0586 16.3518C17.0053 16.3921 16.9285 16.384 16.8881 16.3309L16.68 16.0554C16.6394 16.002 16.6526 15.926 16.7061 15.8857Z" fill="white"/>
<path fill-rule="evenodd" clip-rule="evenodd" d="M18.698 18.9395C18.9114 18.9063 19.1097 18.8536 19.2959 18.7787C19.4951 18.7034 19.6747 18.6028 19.8375 18.4797C20.0003 18.3565 20.1489 18.2087 20.2756 18.0378C20.3953 17.8811 20.5024 17.7075 20.5965 17.5171C20.6336 17.4318 20.6115 17.3908 20.5797 17.3487C20.5288 17.2814 20.4799 17.2168 20.4312 17.1522C20.4098 17.1239 20.3551 17.0636 20.3091 17.1428C20.2014 17.3038 20.0845 17.4584 19.9548 17.5961C19.8151 17.7503 19.668 17.8881 19.5023 18.0132C19.3374 18.1335 19.164 18.2427 18.9751 18.3371C18.8023 18.4237 18.6161 18.4982 18.4183 18.5637C18.3397 18.5882 18.3794 18.6462 18.407 18.6827C18.4558 18.7474 18.5048 18.8119 18.5584 18.8774C18.605 18.9391 18.6509 18.953 18.698 18.9395Z" fill="white"/>
<path fill-rule="evenodd" clip-rule="evenodd" d="M17.8475 17.605C18.0287 17.5298 18.2066 17.4438 18.3752 17.3517C18.5495 17.2553 18.7152 17.1476 18.8751 17.0266C19.0323 16.9077 19.1811 16.7776 19.3239 16.6343C19.4609 16.4999 19.589 16.3544 19.7109 16.2004C19.7571 16.1388 19.7525 16.0805 19.7143 16.0299C19.6548 15.9514 19.5954 15.8727 19.5359 15.7941C19.5062 15.7546 19.4405 15.7203 19.3924 15.779C19.2597 15.9191 19.1259 16.0512 18.985 16.1798C18.8405 16.3155 18.6875 16.4401 18.5303 16.5589C18.3703 16.68 18.2066 16.7904 18.0388 16.8954C17.8737 16.998 17.7045 17.0951 17.5316 17.1818C17.4642 17.2151 17.48 17.2826 17.5118 17.3249C17.5713 17.4035 17.6307 17.482 17.6902 17.5608C17.735 17.6196 17.7962 17.6306 17.8475 17.605Z" fill="white"/>
<path fill-rule="evenodd" clip-rule="evenodd" d="M22.059 21.418C22.471 22.1263 22.8605 22.8337 23.2267 23.5282L22.9657 23.7255C22.6023 23.0291 22.21 22.3236 21.8008 21.6131L22.059 21.418Z" fill="#C4C4C4"/>
<path d="M12.3134 9.38871C12.3964 9.31708 12.4786 9.25075 12.5656 9.18485C12.6503 9.1163 12.7367 9.05543 12.8272 9.00014C13.3518 8.67839 14.053 8.64279 14.7233 8.81148C15.4154 8.98553 16.079 9.38443 16.4806 9.91534C16.5867 10.0557 16.7183 10.2297 16.8388 10.395C17.2387 10.9356 17.5313 11.328 18.2691 12.1342C18.4133 12.2901 18.5766 12.436 18.7427 12.5796C18.9645 12.774 19.1862 12.9682 19.3626 13.2013C19.539 13.4345 19.6655 13.7009 19.7918 13.9672C19.885 14.166 19.9807 14.363 20.0915 14.5443C20.6663 15.4737 20.9644 15.8621 21.3756 16.3943C21.5017 16.5549 21.6331 16.7292 21.7392 16.8695C22.1408 17.4002 22.344 18.1474 22.3251 18.8636C22.3028 19.5517 22.0775 20.2165 21.6252 20.6337C21.5472 20.7058 21.4651 20.7722 21.3763 20.8353C21.2889 20.901 21.2026 20.9621 21.1115 21.0223C20.6381 21.336 20.1541 21.4019 19.7156 21.3006C19.2139 21.1857 18.7745 20.8556 18.4774 20.4272L16.6579 17.7942C16.444 17.4879 16.0986 17.171 15.7924 16.8946C15.5607 16.6814 15.3507 16.4913 15.2276 16.3284C15.1043 16.1655 14.9786 15.9119 14.8367 15.6307C14.6539 15.261 14.4433 14.8421 14.2068 14.553L12.1687 12.0854C11.8376 11.6825 11.6396 11.1699 11.6655 10.6557C11.6874 10.2064 11.8826 9.75855 12.3134 9.38871ZM12.7127 9.37378C12.6342 9.43323 12.5539 9.50243 12.4713 9.5739C12.0924 9.89571 11.9258 10.2822 11.905 10.6689C11.88 11.1203 12.0608 11.5752 12.356 11.9305L14.3935 14.4029C14.6473 14.7097 14.864 15.142 15.0521 15.5251C15.1906 15.7955 15.3099 16.041 15.4183 16.1841C15.5266 16.3273 15.7302 16.5091 15.9528 16.7159C16.2703 17.0013 16.6271 17.3275 16.8529 17.6553L18.6772 20.2891C18.9385 20.6697 19.3272 20.9676 19.7684 21.0666C20.146 21.1517 20.563 21.0967 20.9779 20.8226C21.0672 20.7597 21.1558 20.7014 21.2345 20.6422C21.3131 20.5827 21.3895 20.5204 21.461 20.4573C21.8641 20.0862 22.0659 19.4836 22.0822 18.8574C22.1012 18.1941 21.9152 17.5048 21.5458 17.0161C21.3821 16.7998 21.2801 16.6647 21.1846 16.5386C20.7711 16.0035 20.4662 15.6117 19.8856 14.6692C19.7685 14.4793 19.6713 14.2748 19.576 14.0729C19.4509 13.8143 19.3303 13.5614 19.1717 13.3456C19.0075 13.1345 18.7969 12.9492 18.582 12.7586C18.4138 12.6119 18.2434 12.4627 18.0927 12.2983C17.3439 11.4831 17.05 11.0828 16.6477 10.5393C16.5521 10.4129 16.4501 10.2781 16.2867 10.0617C15.917 9.57287 15.3043 9.20633 14.6608 9.04397C14.0541 8.88929 13.4191 8.91904 12.9522 9.20584C12.8721 9.25762 12.7915 9.31426 12.7127 9.37378Z" fill="#7D240C"/>
</svg>
