<svg width="32" height="32" viewBox="0 0 32 32" fill="none" xmlns="http://www.w3.org/2000/svg">
<path fill-rule="evenodd" clip-rule="evenodd" d="M4 16.0025C4 9.39458 9.38999 4 16.0023 4C22.6099 4 28 9.39458 28 16.0025C28 22.6102 22.6098 27.9999 16.0023 27.9999C9.38999 27.9999 4 22.6102 4 16.0025Z" fill="white"/>
<path fill-rule="evenodd" clip-rule="evenodd" d="M27.5146 19.3895C26.0495 24.3654 21.4491 28.0001 16.0023 28.0001C9.37577 28.0001 3.99998 22.6291 3.99998 16.0026C3.99998 10.7172 7.41585 6.23108 12.1583 4.63306C9.86081 6.59301 8.40041 9.51361 8.40041 12.777C8.40041 18.6855 13.191 23.476 19.0992 23.476C22.5148 23.4758 25.5548 21.8775 27.5146 19.3895Z" fill="#DCECF7"/>
<path fill-rule="evenodd" clip-rule="evenodd" d="M4.55161 19.5988C4.46606 19.3326 4.39449 19.066 4.33281 18.7996C4.47523 19.0992 4.64182 19.3371 4.85608 19.5085C5.19856 19.7845 5.68387 19.8937 6.43551 19.8319L6.45931 20.0984C5.63145 20.1698 5.08925 20.0412 4.6851 19.7179C4.63742 19.6797 4.59455 19.6417 4.55161 19.5988Z" fill="#71838A"/>
<path fill-rule="evenodd" clip-rule="evenodd" d="M9.01465 25.7592C8.84307 25.6307 8.67196 25.5024 8.51019 25.3691C8.04868 24.4605 7.8491 23.7375 8.06308 22.7336L8.32467 22.7908C8.09642 23.8848 8.4007 24.6412 9.01465 25.7592Z" fill="#71838A"/>
<path fill-rule="evenodd" clip-rule="evenodd" d="M16.4493 27.9905C16.2969 27.9949 16.1495 27.9999 16.0022 27.9999C15.9499 27.9999 15.8975 27.9999 15.85 27.9949C16.1068 27.8713 16.359 27.7383 16.6063 27.5908C17.1198 27.2816 17.6052 26.9248 18.0239 26.5012L18.2142 26.6916C17.7814 27.1292 17.2769 27.5005 16.7445 27.8191C16.6444 27.8808 16.5443 27.9331 16.4493 27.9905Z" fill="#71838A"/>
<path fill-rule="evenodd" clip-rule="evenodd" d="M22.9284 25.7974C22.8094 25.8833 22.6906 25.9592 22.5718 26.0402L22.5051 26.0353C21.2156 25.9307 19.2416 25.7691 17.7238 25.5454L17.7621 25.2791C19.27 25.5027 21.2397 25.6596 22.524 25.7643C22.6667 25.7787 22.8046 25.7882 22.9284 25.7974Z" fill="#71838A"/>
<path d="M27.1673 12.5579C26.2587 9.83659 24.7269 8.14803 23.1948 6.45934L23.0189 6.2688L22.8191 6.4498L22.995 6.63999C24.508 8.30981 26.0207 9.97496 26.915 12.6437L27.1673 12.5579Z" fill="#71838A"/>
<path d="M26.8773 14.5751C25.8736 14.2804 24.9174 14.009 23.9565 13.7949C22.9953 13.5857 22.0391 13.4289 21.045 13.3672L21.0258 13.6381C22.0059 13.6999 22.9527 13.8474 23.8993 14.0569C24.8459 14.2709 25.8023 14.5372 26.8013 14.8371L26.8773 14.5751Z" fill="#71838A"/>
<path d="M26.6772 18.4045C26.2491 19.4655 25.7165 20.3694 25.1028 21.1352C24.4889 21.901 23.7944 22.5386 23.0285 23.062L23.1807 23.2808C23.9703 22.7431 24.6841 22.0913 25.3165 21.3017C25.9445 20.5167 26.487 19.589 26.9294 18.5047L26.6772 18.4045Z" fill="#71838A"/>
<path d="M20.084 23.0004C20.0316 22.5865 19.9793 22.1345 19.927 21.6826C19.6937 19.6892 19.4607 17.7247 18.7947 16.5732L18.5617 16.7067C19.1992 17.8104 19.4275 19.7465 19.6555 21.7159C19.7078 22.1488 19.7556 22.5771 19.8177 23.0384L20.084 23.0004Z" fill="#71838A"/>
<path d="M20.1263 5.43188C19.9265 6.27901 19.7074 7.13026 19.4794 7.97738C19.2511 8.84304 19.0132 9.69456 18.7706 10.5316L19.0275 10.6032C19.2748 9.73719 19.5173 8.88567 19.7411 8.04863C19.9693 7.19697 20.1882 6.34525 20.388 5.4892L20.1263 5.43188Z" fill="#71838A"/>
<path d="M17.3767 4.19043C16.1732 4.29984 14.9745 4.49504 13.79 4.8326C12.601 5.16543 11.4257 5.64596 10.2649 6.3263L10.3983 6.55932C11.5399 5.88894 12.6958 5.41767 13.8614 5.08938C15.0317 4.75655 16.2113 4.56622 17.4004 4.45688L17.3767 4.19043Z" fill="#71838A"/>
<path d="M15.6025 11.445C14.7034 10.7647 13.7568 10.1794 12.7671 9.66081C11.7825 9.13758 10.7551 8.68567 9.69897 8.28613L9.60374 8.53824C10.6503 8.93778 11.6684 9.38489 12.6436 9.89878C13.6189 10.4125 14.5559 10.9927 15.4408 11.6589L15.6025 11.445Z" fill="#71838A"/>
<path d="M15.4173 14.7795C14.3754 15.4597 13.3623 16.197 12.3586 16.9822C11.3642 17.767 10.3844 18.5948 9.41388 19.4558L9.59025 19.6605C10.5509 18.8042 11.5308 17.9766 12.5249 17.1964C13.5194 16.416 14.5326 15.6789 15.5648 15.0031L15.4173 14.7795Z" fill="#71838A"/>
<path d="M7.23512 18.4332C6.81677 17.0586 6.61677 15.7361 6.64518 14.4659C6.66898 13.1956 6.92111 11.9778 7.4017 10.8029L7.15437 10.7031C6.65945 11.9066 6.40266 13.1576 6.37419 14.4609C6.34537 15.7597 6.5501 17.1109 6.97834 18.5093L7.23512 18.4332Z" fill="#71838A"/>
<path d="M17.7337 25.2597C16.1547 25.0123 14.6608 24.7124 13.386 24.2795C12.1203 23.8514 11.0741 23.2996 10.3791 22.5383L10.1796 22.7191C10.9075 23.5135 11.992 24.0941 13.2953 24.5364C14.5895 24.9743 16.0973 25.2739 17.6911 25.526L17.7337 25.2597Z" fill="#71838A"/>
<path fill-rule="evenodd" clip-rule="evenodd" d="M5.64167 9.951C6.43613 8.5906 7.48744 7.40125 8.7338 6.45466C9.6092 6.0311 10.5606 5.72697 11.5784 5.79821C10.965 6.63525 10.5795 7.61066 10.6366 8.85705C8.86715 9.58008 7.54465 10.5602 6.89297 11.916C6.20774 11.44 5.68455 10.8217 5.64167 9.951Z" fill="#0C2C42"/>
<path fill-rule="evenodd" clip-rule="evenodd" d="M17.1246 4.05737C19.4936 4.27605 21.6581 5.17981 23.423 6.57384C23.504 6.75456 23.5799 6.93055 23.6416 7.10667C22.462 6.21726 21.2872 6.06935 20.0644 6.38831C19.0371 5.42718 18.0522 4.92317 16.4349 4.47119C16.6157 4.30474 16.8534 4.17131 17.1246 4.05737Z" fill="#0C2C42"/>
<path fill-rule="evenodd" clip-rule="evenodd" d="M28 16.0024C28 16.8348 27.9142 17.6483 27.7524 18.4331C27.3767 18.8519 26.9817 18.9899 26.5489 19.0229C26.368 15.3745 25.9685 14.7892 25.5596 14.3515C26.2729 13.9901 26.4347 12.7103 26.6013 11.4451C26.9533 11.697 27.2578 12.1774 27.5479 12.7389C27.8428 13.776 28 14.8701 28 16.0024Z" fill="#0C2C42"/>
<path fill-rule="evenodd" clip-rule="evenodd" d="M21.9482 13.5568C21.0683 11.7303 20.5784 10.9262 19.1943 9.45142C17.2578 9.73688 16.24 10.0176 14.4372 10.8026C14.2183 12.5293 14.1756 13.9707 14.2564 15.7451C15.8452 16.2684 17.5007 16.868 18.9991 17.4815C20.3786 16.0878 20.9543 15.184 21.9482 13.5568Z" fill="#0C2C42"/>
<path fill-rule="evenodd" clip-rule="evenodd" d="M23.6091 22.7671C22.1723 22.705 20.8639 22.5863 19.8315 22.0295C18.9184 23.4376 17.5815 24.3272 15.9975 25.0219C16.2688 25.7544 16.6256 26.4681 17.3913 27.2054C21.2781 27.1579 23.176 25.55 23.6091 22.7671Z" fill="#0C2C42"/>
<path fill-rule="evenodd" clip-rule="evenodd" d="M11.2926 23.3568C10.6648 21.7679 10.4887 20.2125 10.4887 18.6666C9.03793 18.2333 7.78204 17.5723 6.68806 16.7351C5.85546 17.815 5.4511 18.852 5.49378 19.8986C5.56046 21.6967 7.33472 23.7044 8.10063 23.9946C9.29945 24.161 10.3174 23.8185 11.2926 23.3568Z" fill="#0C2C42"/>
</svg>
