<svg width="24" height="24" viewBox="0 0 24 24" fill="none" xmlns="http://www.w3.org/2000/svg">
<path d="M11.9999 15.001C13.6568 15.001 14.9999 13.6578 14.9999 12.001C14.9999 10.3441 13.6568 9.00098 11.9999 9.00098C10.3431 9.00098 8.99994 10.3441 8.99994 12.001C8.99994 13.6578 10.3431 15.001 11.9999 15.001Z" stroke="#818181" stroke-width="1.6" stroke-miterlimit="10" stroke-linecap="round" stroke-linejoin="round"/>
<path d="M2.00006 12.8794V11.1194C2.00006 10.0794 2.85006 9.21945 3.90006 9.21945C5.71006 9.21945 6.45006 7.93945 5.54006 6.36945C5.02006 5.46945 5.33006 4.29945 6.24006 3.77945L7.97006 2.78945C8.76006 2.31945 9.78006 2.59945 10.2501 3.38945L10.3601 3.57945C11.2601 5.14945 12.7401 5.14945 13.6501 3.57945L13.7601 3.38945C14.2301 2.59945 15.2501 2.31945 16.0401 2.78945L17.7701 3.77945C18.6801 4.29945 18.9901 5.46945 18.4701 6.36945C17.5601 7.93945 18.3001 9.21945 20.1101 9.21945C21.1501 9.21945 22.0101 10.0694 22.0101 11.1194V12.8794C22.0101 13.9194 21.1601 14.7794 20.1101 14.7794C18.3001 14.7794 17.5601 16.0594 18.4701 17.6294C18.9901 18.5394 18.6801 19.6994 17.7701 20.2194L16.0401 21.2094C15.2501 21.6794 14.2301 21.3994 13.7601 20.6094L13.6501 20.4194C12.7501 18.8494 11.2701 18.8494 10.3601 20.4194L10.2501 20.6094C9.78006 21.3994 8.76006 21.6794 7.97006 21.2094L6.24006 20.2194C5.33006 19.6994 5.02006 18.5294 5.54006 17.6294C6.45006 16.0594 5.71006 14.7794 3.90006 14.7794C2.85006 14.7794 2.00006 13.9194 2.00006 12.8794Z" stroke="#818181" stroke-width="1.6" stroke-miterlimit="10" stroke-linecap="round" stroke-linejoin="round"/>
</svg>
